<?xml version="1.0" encoding="utf-8"?>
<!-- Generator: Adobe Illustrator 17.0.0, SVG Export Plug-In . SVG Version: 6.00 Build 0)  -->
<!DOCTYPE svg PUBLIC "-//W3C//DTD SVG 1.1//EN" "http://www.w3.org/Graphics/SVG/1.1/DTD/svg11.dtd">
<svg version="1.1" id="Layer_1" xmlns="http://www.w3.org/2000/svg" xmlns:xlink="http://www.w3.org/1999/xlink" x="0px" y="0px"
	 width="535px" height="163px" viewBox="0 0 535 163" enable-background="new 0 0 535 163" xml:space="preserve">
<g>
	<g>
		<polygon points="138.06,114.416 138.06,71.184 124.396,99.336 110.842,71.22 110.842,114.416 100.262,114.416 100.262,48.559 
			110.078,48.559 124.4,77.973 138.723,48.559 148.639,48.559 148.639,114.416 		"/>
		<path d="M147.139,50.059v62.857h-7.58V65.074h-0.202L124.4,95.892l-14.856-30.817l-0.202,0.175v47.666h-7.58V50.059h7.378
			L124.4,81.4l15.261-31.341H147.139 M150.139,47.059h-3h-7.478h-1.876l-0.821,1.687L124.4,74.547l-12.563-25.801l-0.821-1.687
			h-1.876h-7.378h-3v3v62.857v3h3h7.58h3v-3V77.786l9.356,19.408l2.693,5.587l2.708-5.58l9.46-19.492v35.205v3h3h7.58h3v-3V50.059
			V47.059L150.139,47.059z"/>
	</g>
	<g>
		<path d="M185.035,115.638c-10.497,0-21.712-5.967-21.712-22.714V48.559h10.58v47.856c0,7.905,5.75,10.722,11.132,10.722
			c7.32,0,11.032-3.872,11.032-11.508V48.559h10.58v47.856C206.647,109.035,195.775,115.638,185.035,115.638z"/>
		<path d="M205.147,50.059v46.357c0,11.873-10.309,17.722-20.112,17.722c-7.883,0-20.212-3.842-20.212-21.214V50.059h7.58v46.357
			c0,9.079,6.771,12.222,12.633,12.222c9.298,0,12.532-5.937,12.532-13.008V50.059H205.147 M208.147,47.059h-3h-7.58h-3v3V95.63
			c0,10.008-7.175,10.008-9.532,10.008c-8.938,0-9.633-7.059-9.633-9.222V50.059v-3h-3h-7.58h-3v3v42.865
			c0,17.853,11.991,24.214,23.212,24.214c11.485,0,23.112-7.118,23.112-20.722V50.059V47.059L208.147,47.059z"/>
	</g>
	<g>
		<path d="M240.873,115.638c-9.086,0-16.658-3.503-23.147-10.71l-1.146-1.273l8.481-5.81l0.857,1.184
			c3.729,5.154,9.18,8.109,14.955,8.109c6.922,0,12.345-4.441,12.345-10.111c0-4.369,0-5.688-12.428-12.112l-6.57-3.406
			c-7.398-3.78-14.251-8.475-14.251-17.133c0-10.192,8.482-17.04,21.106-17.04c8.854,0,16.278,4.451,20.947,8.186l1.285,1.028
			l-6.619,6.862l-1.062-0.813c-4.656-3.563-9.295-6.762-14.854-6.762c-5.924,0-10.223,3.408-10.223,8.104
			c0,2.461,0,5.007,9.708,10.108l5.766,3.058c13.337,7.07,17.775,10.813,17.775,19.047
			C263.798,107.99,254.799,115.638,240.873,115.638z"/>
		<path d="M241.075,48.836c7.58,0,14.553,3.492,20.01,7.857l-4.548,4.714c-4.447-3.405-9.5-7.071-15.766-7.071
			c-6.468,0-11.723,3.841-11.723,9.603c0,3.317,0.707,6.285,10.51,11.436l5.761,3.056c13.34,7.071,16.978,10.389,16.978,17.722
			c0,11.262-8.691,17.984-21.425,17.984c-9.399,0-16.373-3.929-22.032-10.214l5.862-4.016c3.537,4.889,9.197,8.73,16.17,8.73
			c7.58,0,13.845-4.889,13.845-11.611c0-5.064-0.404-6.81-13.239-13.444l-6.569-3.405c-7.176-3.667-13.441-7.944-13.441-15.801
			C221.469,54.511,230.16,48.836,241.075,48.836 M241.075,45.836c-13.31,0-22.606,7.624-22.606,18.54
			c0,9.465,7.246,14.472,15.076,18.473l6.554,3.397c11.619,6.006,11.619,7.018,11.619,10.781c0,4.829-4.764,8.611-10.845,8.611
			c-5.289,0-10.297-2.729-13.739-7.489l-1.714-2.369l-2.412,1.653l-5.862,4.016l-2.826,1.936l2.292,2.546
			c6.79,7.541,14.726,11.207,24.261,11.207c14.838,0,24.425-8.237,24.425-20.984c0-9.532-5.66-13.528-18.573-20.373l-5.76-3.055
			c-8.916-4.685-8.916-6.77-8.916-8.786c0-4.335,4.388-6.603,8.723-6.603c5.098,0,9.331,2.923,13.943,6.453l2.125,1.627l1.858-1.926
			l4.548-4.714l2.286-2.369l-2.571-2.056C258.103,50.467,250.364,45.836,241.075,45.836L241.075,45.836z"/>
	</g>
	<g>
		<polygon points="277.534,114.416 277.534,48.559 318.332,48.559 318.332,57.059 288.114,57.059 288.114,76.408 309.842,76.408 
			309.842,84.908 288.114,84.908 288.114,105.916 319.04,105.916 319.04,114.416 		"/>
		<path d="M316.832,50.059v5.5h-30.218v22.349h21.728v5.5h-21.728v24.007h30.926v5.5h-38.505V50.059H316.832 M319.832,47.059h-3
			h-37.797h-3v3v62.857v3h3h38.505h3v-3v-5.5v-3h-3h-27.926V86.408h18.728h3v-3v-5.5v-3h-3h-18.728V58.559h27.218h3v-3v-5.5V47.059
			L319.832,47.059z"/>
	</g>
	<g>
		<path d="M352.94,115.638c-10.497,0-21.713-5.967-21.713-22.714V48.559h10.58v47.856c0,7.905,5.751,10.722,11.133,10.722
			c7.319,0,11.031-3.872,11.031-11.508V48.559h10.58v47.856C374.552,109.035,363.68,115.638,352.94,115.638z"/>
		<path d="M373.051,50.059v46.357c0,11.873-10.308,17.722-20.111,17.722c-7.883,0-20.212-3.842-20.212-21.214V50.059h7.58v46.357
			c0,9.079,6.771,12.222,12.633,12.222c9.298,0,12.532-5.937,12.532-13.008V50.059H373.051 M376.051,47.059h-3h-7.58h-3v3V95.63
			c0,10.008-7.174,10.008-9.532,10.008c-8.938,0-9.633-7.059-9.633-9.222V50.059v-3h-3h-7.58h-3v3v42.865
			c0,17.853,11.991,24.214,23.212,24.214c11.485,0,23.111-7.118,23.111-20.722V50.059V47.059L376.051,47.059z"/>
	</g>
	<g>
		<polygon points="424.235,114.416 424.235,71.183 410.57,99.336 397.018,71.223 397.018,114.416 386.438,114.416 386.438,48.559 
			396.254,48.559 410.575,77.973 424.898,48.559 434.814,48.559 434.814,114.416 		"/>
		<path d="M433.315,50.059v62.857h-7.58V65.074h-0.202l-14.957,30.817l-14.857-30.817l-0.202,0.175v47.666h-7.58V50.059h7.378
			l15.26,31.341l15.26-31.341H433.315 M436.315,47.059h-3h-7.479h-1.876l-0.821,1.687l-12.563,25.801l-12.563-25.801l-0.821-1.687
			h-1.876h-7.378h-3v3v62.857v3h3h7.58h3v-3V77.787l9.356,19.407l2.693,5.587l2.708-5.579l9.46-19.492v35.205v3h3h7.58h3v-3V50.059
			V47.059L436.315,47.059z"/>
	</g>
</g>
<g>
	<path d="M520,15v133H15V15H520 M535,0H0v163h535V0L535,0z"/>
</g>
</svg>
